<svg width="409" height="487" viewBox="0 0 409 487" fill="none" xmlns="http://www.w3.org/2000/svg">
<path d="M323.213 211.873C310.947 196.611 275.523 167.768 231.955 174.489C177.495 182.89 150.37 164.408 127.45 145.296C104.531 126.184 86.2372 128.494 63.1073 136.895C39.9775 145.296 22.3147 195.701 55.3273 244.846C88.3399 293.992 77.616 333.686 55.3273 369.81C33.0385 405.933 83.0831 425.046 110.629 422.735C138.174 420.425 231.114 434.077 270.225 452.559C309.335 471.04 394.705 439.537 378.514 352.168C365.562 282.272 336.25 229.515 323.213 211.873Z" fill="#F9FAFB"/>
<path fill-rule="evenodd" clip-rule="evenodd" d="M179.452 171.344C180.022 166.268 178.387 127.643 176.877 110.04L172.667 72.4397C171.333 56.893 164.312 48.5772 160.598 45.8507C157.626 43.6694 152.89 38.8264 150.893 36.6776L143.804 30.1077C143.428 38.4055 138.486 41.6572 134.717 45.8958C130.948 50.1344 131.189 52.9415 130.721 60.1597C130.346 65.9342 124.683 66.6955 121.899 66.3544L124.022 73.3503C126.472 81.6232 130.908 85.1579 138.663 91.8881C144.867 97.2722 146.132 113.869 145.988 121.494C145.822 130.323 146.062 149.405 144.38 164.968C142.699 180.531 133.487 190.371 123.43 205.982C113.373 221.593 117.89 242.993 122.798 265.03C124.868 274.33 130.915 283.348 138.117 291.219C134.855 284.454 131.354 268.653 143.446 259.571C158.561 248.219 186.645 266.909 195.821 276.195C203.162 283.624 221.831 304.583 230.248 314.134C233.484 317.991 244.314 324.927 261.745 321.823C273.456 302.048 288.314 275.969 289.216 270.864C289.387 261.129 304.331 247.78 318.552 233.823C326.894 215.409 326.963 202.934 325.955 198.998C323.851 196.609 318.682 191.578 314.841 190.567C311 189.555 307.347 191.768 306 193.001C306 193.001 285.779 203.451 276.196 197.234C255.528 194.65 240.126 190.943 227.777 187.645C215.427 184.347 201.28 183.55 189.387 185.575C179.873 187.196 178.799 176.763 179.452 171.344ZM231.946 259.688C216.19 258.358 184.749 244.028 185.034 197.345C187.368 210.218 200.017 240.707 231.946 259.688Z" fill="white"/>
<path d="M231.946 259.688C216.19 258.358 184.749 244.028 185.034 197.345C187.368 210.218 200.017 240.707 231.946 259.688Z" fill="#CFCFCF"/>
<path d="M190.338 313.871C196.099 310.695 206.024 309.174 214.477 317.834C218.492 321.948 226.716 327.516 235.5 330.108C240.997 331.731 246.714 332.188 251.755 330.394C255.615 329.02 259.079 326.325 261.745 321.823C244.314 324.927 233.484 317.991 230.248 314.134C221.831 304.583 203.162 283.624 195.821 276.195C186.645 266.909 158.561 248.219 143.446 259.571C131.354 268.653 134.855 284.454 138.117 291.219C147.98 301.998 160.01 310.624 166.961 314.871C171.39 317.577 174.946 318.585 177.959 318.62C182.073 318.668 185.174 316.903 188.103 315.169C188.855 314.724 189.595 314.281 190.338 313.871Z" fill="#CFCFCF"/>
<path d="M176.877 110.04L178.372 109.912C178.371 109.899 178.369 109.886 178.368 109.873L176.877 110.04ZM179.452 171.344L180.941 171.524L180.942 171.512L179.452 171.344ZM189.387 185.575L189.136 184.097L189.387 185.575ZM276.196 197.234L277.012 195.976C276.822 195.852 276.607 195.774 276.382 195.746L276.196 197.234ZM306 193.001L306.688 194.334C306.806 194.273 306.915 194.197 307.013 194.108L306 193.001ZM325.955 198.998L327.408 198.626C327.35 198.397 327.237 198.185 327.081 198.007L325.955 198.998ZM318.552 233.823L319.603 234.893C319.735 234.764 319.842 234.611 319.918 234.442L318.552 233.823ZM289.216 270.864L290.694 271.125C290.707 271.048 290.715 270.969 290.716 270.89L289.216 270.864ZM214.477 317.834L213.403 318.881L214.477 317.834ZM190.338 313.871L189.614 312.558L190.338 313.871ZM166.961 314.871L166.179 316.151L166.179 316.151L166.961 314.871ZM122.798 265.03L124.262 264.704L124.262 264.704L122.798 265.03ZM145.988 121.494L144.489 121.466L145.988 121.494ZM188.103 315.169L188.867 316.459L188.867 316.459L188.103 315.169ZM177.959 318.62L177.942 320.12L177.959 318.62ZM235.5 330.108L235.075 331.547L235.5 330.108ZM251.755 330.394L252.258 331.807L251.755 330.394ZM138.117 291.219L137.01 292.231L137.01 292.231L138.117 291.219ZM143.446 259.571L142.545 258.372L143.446 259.571ZM195.821 276.195L194.754 277.249L195.821 276.195ZM230.248 314.134L231.397 313.17C231.39 313.161 231.382 313.152 231.374 313.143L230.248 314.134ZM231.946 259.688L231.82 261.183C232.516 261.242 233.161 260.812 233.374 260.146C233.588 259.481 233.313 258.756 232.712 258.399L231.946 259.688ZM185.034 197.345L186.51 197.078C186.372 196.316 185.676 195.784 184.904 195.851C184.133 195.918 183.539 196.562 183.534 197.336L185.034 197.345ZM138.663 91.8881L139.646 90.7552L139.646 90.7552L138.663 91.8881ZM124.022 73.3503L125.46 72.9243L125.457 72.9147L124.022 73.3503ZM121.899 66.3544L122.081 64.8655C121.578 64.8038 121.077 65.0008 120.751 65.3891C120.424 65.7774 120.316 66.3044 120.464 66.7899L121.899 66.3544ZM130.721 60.1597L132.217 60.2568L132.217 60.2568L130.721 60.1597ZM134.717 45.8958L133.596 44.899L133.596 44.899L134.717 45.8958ZM143.804 30.1077L144.823 29.0075C144.395 28.6105 143.775 28.4983 143.235 28.7198C142.694 28.9414 142.332 29.4564 142.305 30.0399L143.804 30.1077ZM150.893 36.6776L151.991 35.6564C151.966 35.6291 151.94 35.6027 151.912 35.5774L150.893 36.6776ZM160.598 45.8507L159.71 47.0598L159.71 47.0598L160.598 45.8507ZM172.667 72.4397L171.173 72.5679C171.174 72.5808 171.175 72.5937 171.176 72.6066L172.667 72.4397ZM175.383 110.168C176.135 118.938 176.92 132.969 177.446 145.453C177.709 151.692 177.906 157.535 178.003 162.131C178.1 166.782 178.09 170.03 177.961 171.177L180.942 171.512C181.099 170.12 181.098 166.637 181.002 162.068C180.905 157.444 180.706 151.578 180.443 145.326C179.917 132.828 179.13 118.746 178.372 109.912L175.383 110.168ZM177.962 171.165C177.62 174.011 177.706 178.281 179.237 181.711C180.014 183.452 181.201 185.058 182.972 186.093C184.76 187.137 186.982 187.507 189.639 187.054L189.136 184.097C187.036 184.454 185.555 184.128 184.486 183.503C183.401 182.868 182.576 181.831 181.977 180.488C180.755 177.752 180.631 174.097 180.941 171.524L177.962 171.165ZM189.639 187.054C201.303 185.067 215.231 185.847 227.39 189.094L228.164 186.196C215.622 182.847 201.258 182.032 189.136 184.097L189.639 187.054ZM227.39 189.094C239.778 192.403 255.251 196.127 276.01 198.722L276.382 195.746C255.805 193.173 240.474 189.483 228.164 186.196L227.39 189.094ZM275.38 198.492C278.134 200.279 281.543 200.805 284.945 200.694C288.361 200.583 291.921 199.825 295.114 198.888C298.316 197.948 301.202 196.813 303.285 195.914C304.328 195.464 305.173 195.072 305.76 194.791C306.053 194.65 306.283 194.538 306.44 194.459C306.518 194.42 306.579 194.389 306.621 194.368C306.642 194.358 306.658 194.349 306.669 194.344C306.675 194.341 306.679 194.338 306.682 194.337C306.684 194.336 306.685 194.335 306.686 194.335C306.687 194.334 306.687 194.334 306.688 194.334C306.688 194.334 306.688 194.334 306 193.001C305.311 191.669 305.311 191.668 305.311 191.668C305.311 191.668 305.311 191.668 305.311 191.668C305.311 191.669 305.311 191.669 305.31 191.669C305.308 191.67 305.305 191.672 305.301 191.674C305.293 191.678 305.28 191.685 305.262 191.694C305.227 191.711 305.173 191.739 305.101 191.775C304.957 191.846 304.743 191.952 304.465 192.085C303.908 192.351 303.099 192.727 302.096 193.159C300.088 194.026 297.32 195.114 294.269 196.01C291.21 196.908 287.917 197.596 284.847 197.696C281.762 197.796 279.05 197.297 277.012 195.976L275.38 198.492ZM307.013 194.108C307.549 193.616 308.635 192.859 310.008 192.348C311.372 191.841 312.921 191.612 314.459 192.017L315.223 189.116C312.921 188.51 310.722 188.882 308.962 189.536C307.212 190.187 305.797 191.153 304.987 191.895L307.013 194.108ZM314.459 192.017C316.043 192.434 318.082 193.758 320.094 195.422C322.06 197.048 323.822 198.846 324.83 199.99L327.081 198.007C325.984 196.761 324.109 194.85 322.005 193.11C319.946 191.408 317.48 189.71 315.223 189.116L314.459 192.017ZM324.502 199.371C324.935 201.062 325.196 204.937 324.278 210.747C323.367 216.518 321.305 224.111 317.186 233.204L319.918 234.442C324.141 225.121 326.285 217.27 327.241 211.216C328.192 205.201 327.983 200.871 327.408 198.626L324.502 199.371ZM317.501 232.752C310.433 239.69 303.072 246.583 297.488 252.937C294.691 256.12 292.291 259.221 290.575 262.179C288.866 265.124 287.766 268.042 287.717 270.838L290.716 270.89C290.753 268.818 291.584 266.417 293.17 263.685C294.747 260.966 297.005 258.032 299.742 254.917C305.228 248.673 312.45 241.913 319.603 234.893L317.501 232.752ZM287.739 270.603C287.658 271.066 287.384 271.9 286.872 273.133C286.373 274.333 285.688 275.817 284.843 277.539C283.155 280.98 280.86 285.313 278.219 290.12C272.939 299.73 266.306 311.178 260.455 321.059L263.036 322.587C268.895 312.693 275.547 301.214 280.849 291.565C283.499 286.741 285.819 282.362 287.537 278.86C288.395 277.11 289.11 275.564 289.642 274.284C290.161 273.036 290.55 271.939 290.694 271.125L287.739 270.603ZM215.55 316.786C206.501 307.514 195.792 309.152 189.614 312.558L191.062 315.185C196.406 312.239 205.548 310.833 213.403 318.881L215.55 316.786ZM124.262 264.704C121.803 253.663 119.479 242.93 119 233.024C118.523 223.134 119.897 214.236 124.691 206.795L122.169 205.17C116.906 213.34 115.51 222.947 116.004 233.169C116.497 243.375 118.885 254.36 121.333 265.356L124.262 264.704ZM124.691 206.795C127.191 202.915 129.636 199.395 131.947 196.025C134.251 192.664 136.423 189.447 138.336 186.222C142.174 179.752 145 173.193 145.871 165.129L142.889 164.807C142.079 172.306 139.458 178.449 135.756 184.692C133.898 187.824 131.777 190.967 129.473 194.328C127.175 197.679 124.698 201.244 122.169 205.17L124.691 206.795ZM145.871 165.129C147.563 149.478 147.323 130.274 147.488 121.522L144.489 121.466C144.321 130.372 144.561 149.332 142.889 164.807L145.871 165.129ZM189.614 312.558C188.846 312.981 188.081 313.439 187.339 313.878L188.867 316.459C189.629 316.009 190.345 315.581 191.062 315.185L189.614 312.558ZM187.339 313.878C184.402 315.616 181.627 317.163 177.977 317.12L177.942 320.12C182.518 320.173 185.946 318.189 188.867 316.459L187.339 313.878ZM177.977 317.12C175.303 317.089 172.009 316.198 167.743 313.591L166.179 316.151C170.771 318.957 174.589 320.081 177.942 320.12L177.977 317.12ZM235.924 328.669C227.397 326.153 219.394 320.724 215.55 316.786L213.403 318.881C217.589 323.171 226.034 328.878 235.075 331.547L235.924 328.669ZM260.455 321.059C257.958 325.274 254.766 327.73 251.252 328.98L252.258 331.807C256.464 330.31 260.2 327.377 263.036 322.587L260.455 321.059ZM251.252 328.98C246.619 330.629 241.253 330.242 235.924 328.669L235.075 331.547C240.741 333.219 246.808 333.746 252.258 331.807L251.252 328.98ZM167.743 313.591C160.874 309.394 148.965 300.853 139.223 290.206L137.01 292.231C146.994 303.143 159.146 311.854 166.179 316.151L167.743 313.591ZM139.223 290.206C132.096 282.417 126.25 273.632 124.262 264.704L121.333 265.356C123.487 275.028 129.734 284.279 137.01 292.231L139.223 290.206ZM139.468 290.567C137.922 287.361 136.305 281.963 136.523 276.322C136.738 270.724 138.746 264.977 144.347 260.771L142.545 258.372C136.054 263.247 133.766 269.941 133.525 276.206C133.285 282.427 135.049 288.311 136.766 291.87L139.468 290.567ZM144.347 260.771C151.195 255.627 161.267 257.132 171.258 261.517C181.136 265.853 190.294 272.736 194.754 277.249L196.888 275.141C192.171 270.367 182.7 263.263 172.463 258.77C162.339 254.327 150.812 252.163 142.545 258.372L144.347 260.771ZM194.754 277.249C202.058 284.641 220.695 305.563 229.123 315.126L231.374 313.143C222.968 303.604 204.266 282.607 196.888 275.141L194.754 277.249ZM229.099 315.099C232.703 319.393 244.084 326.492 262.008 323.3L261.482 320.346C244.543 323.363 234.265 316.588 231.397 313.17L229.099 315.099ZM232.072 258.193C224.506 257.555 213.044 253.768 203.524 244.452C194.045 235.177 186.394 220.326 186.534 197.355L183.534 197.336C183.389 221.048 191.315 236.703 201.425 246.596C211.493 256.448 223.63 260.492 231.82 261.183L232.072 258.193ZM183.558 197.613C185.954 210.83 198.811 241.735 231.179 260.978L232.712 258.399C201.222 239.679 188.781 209.605 186.51 197.078L183.558 197.613ZM147.488 121.522C147.561 117.631 147.277 111.472 146.181 105.577C145.633 102.628 144.874 99.7049 143.835 97.1483C142.803 94.6094 141.449 92.3194 139.646 90.7552L137.68 93.021C138.979 94.1488 140.11 95.9524 141.056 98.2781C141.994 100.586 142.706 103.298 143.231 106.125C144.283 111.781 144.559 117.732 144.489 121.466L147.488 121.522ZM139.646 90.7552C131.833 83.9746 127.766 80.7104 125.46 72.9243L122.583 73.7762C125.177 82.5359 129.983 86.3412 137.68 93.021L139.646 90.7552ZM125.457 72.9147L123.334 65.9188L120.464 66.7899L122.586 73.7858L125.457 72.9147ZM121.716 67.8432C123.302 68.0375 125.722 67.9307 127.863 66.9026C130.106 65.8254 131.991 63.744 132.217 60.2568L129.224 60.0625C129.075 62.3499 127.942 63.5364 126.564 64.1982C125.084 64.9091 123.28 65.0123 122.081 64.8655L121.716 67.8432ZM132.217 60.2568C132.459 56.5385 132.509 54.2196 132.946 52.2327C133.354 50.3795 134.102 48.8446 135.838 46.8926L133.596 44.899C131.563 47.1856 130.547 49.1736 130.016 51.5881C129.514 53.8689 129.451 56.5626 129.224 60.0625L132.217 60.2568ZM135.838 46.8926C139.366 42.9253 144.895 39.1552 145.302 30.1756L142.305 30.0399C141.96 37.6559 137.607 40.389 133.596 44.899L135.838 46.8926ZM142.784 31.2079L149.873 37.7777L151.912 35.5774L144.823 29.0075L142.784 31.2079ZM149.794 37.6987C151.783 39.8395 156.609 44.7833 159.71 47.0598L161.485 44.6415C158.644 42.5555 153.996 37.8133 151.991 35.6564L149.794 37.6987ZM159.71 47.0598C163.056 49.5162 169.874 57.4276 171.173 72.5679L174.162 72.3115C172.793 56.3584 165.568 47.6383 161.485 44.6415L159.71 47.0598ZM171.176 72.6066L175.386 110.207L178.368 109.873L174.158 72.2728L171.176 72.6066Z" fill="#CFCFCF"/>
<path d="M122.442 67.6126C125.226 67.9537 130.889 67.1924 131.264 61.4179C131.732 54.1997 131.491 51.3926 135.26 47.154C139.029 42.9154 143.971 39.6637 144.347 31.3659C140.802 28.081 138.436 28.3928 126.073 28.8009C113.709 29.209 112.204 24.3353 105.436 24.0458C93.5561 23.4989 93.1117 25.7557 94.3744 26.9524C104.344 26.5322 117.751 40.8255 118.196 46.0078C121.93 51.0562 126.766 60.3991 116.241 57.3827C110.497 56.3528 105.421 55.5061 97.4312 56.1801C98.899 56.9651 100.592 57.5762 101.595 57.8727C104.182 58.4483 110.182 60.0943 113.484 62.0731C116.786 64.052 120.832 66.5906 122.442 67.6126Z" fill="#E77020"/>
<path d="M104.568 51.9622C100.879 52.0612 93.7964 52.6688 94.9811 54.3073C95.4713 54.9853 96.3952 55.626 97.4312 56.1801C105.421 55.5061 110.497 56.3528 116.241 57.3827C126.766 60.3991 121.93 51.0562 118.196 46.0078C118.551 50.1536 115.93 51.7125 114.575 51.9738L104.568 51.9622Z" fill="#A9551D"/>
<path d="M235.367 330.667C236.228 331.04 238.059 333.051 238.493 338.109C238.927 343.166 239.195 356.707 239.275 362.846C239.281 365.527 238.347 371.573 234.56 374.311C230.773 377.05 214.083 389.587 206.212 395.514C203.785 397.175 200.345 400.576 206.003 400.895C213.076 401.293 213.942 403.566 214.836 406.17C215.729 408.775 218.05 416.286 224.219 410.058C230.389 403.831 232.432 400.303 238.517 404.809C244.602 409.315 250.944 416.815 250.334 405.806C249.725 394.797 246.225 369.623 247.193 357.474L247.256 356.683C248.17 345.215 248.369 342.708 251.622 330.953C246.581 332.747 240.864 332.29 235.367 330.667Z" fill="#E77020"/>
<path d="M192.7 359.132L187.971 315.728C185.041 317.462 181.94 319.227 177.827 319.18C181.021 329.632 182.203 342.267 183.031 351.917C183.693 359.636 178.167 362.948 175.322 363.639C170.036 364.54 158.206 366.516 153.171 367.216C146.877 368.091 147.99 369.336 149.606 372.549C151.222 375.763 148.789 378.653 145.224 383.987C141.66 389.32 148.951 388.359 150.948 388.188C152.944 388.017 153.334 388.654 155.397 393.169C157.461 397.685 159.561 394.823 168.136 385.373C176.711 375.922 187.149 368.658 190.029 367.07C192.333 365.8 192.77 361.249 192.7 359.132Z" fill="#E77020"/>
<path d="M157.562 60.6764C158.445 59.6974 158.628 58.3792 158.36 57.1511C158.091 55.9208 157.362 54.694 156.278 53.716C155.195 52.7381 153.9 52.1385 152.648 51.9973C151.399 51.8563 150.107 52.1726 149.223 53.1516C148.34 54.1306 148.157 55.4488 148.426 56.6769C148.694 57.9072 149.423 59.134 150.507 60.112C151.591 61.0899 152.886 61.6895 154.137 61.8307C155.386 61.9717 156.679 61.6554 157.562 60.6764Z" stroke="#CFCFCF" stroke-width="2"/>
<ellipse cx="153.409" cy="56.878" rx="1.67172" ry="2.76298" transform="rotate(-46.7137 153.409 56.878)" fill="#9CBAD2"/>
<path d="M122.334 32.0635C123.056 32.8716 125.212 34.1658 128.059 32.8774C127.63 33.7843 126.273 35.3798 124.284 34.5064C123.317 34.2268 121.574 33.3468 122.334 32.0635Z" fill="black" stroke="black" stroke-width="3" stroke-linejoin="round"/>
<path d="M78.1097 28.3872L36.8757 12.8235" stroke="#D3D3D3" stroke-linejoin="round"/>
<path d="M78.8872 35.7247L21.6105 37.3162" stroke="#D3D3D3" stroke-linejoin="round"/>
<path d="M81.4413 48.479L52.3723 53.2993" stroke="#D3D3D3" stroke-linejoin="round"/>
</svg>
