<svg width="16" height="16" viewBox="0 0 16 16" fill="none" xmlns="http://www.w3.org/2000/svg">
<path d="M6.13807 3.52859C6.39842 3.78894 6.39842 4.21105 6.13807 4.4714L3.27614 7.33333H14.3333C14.7015 7.33333 15 7.6318 15 7.99999C15 8.36818 14.7015 8.66666 14.3333 8.66666H3.27614L6.13807 11.5286C6.39842 11.7889 6.39842 12.211 6.13807 12.4714C5.87772 12.7317 5.45561 12.7317 5.19526 12.4714L1.19526 8.4714C1.07024 8.34637 1 8.1768 1 7.99999C1 7.82318 1.07024 7.65361 1.19526 7.52859L5.19526 3.52859C5.45561 3.26824 5.87772 3.26824 6.13807 3.52859Z" fill="white"/>
</svg>
