<svg width="96" height="96" viewBox="0 0 96 96" fill="none" xmlns="http://www.w3.org/2000/svg">
<path d="M55.5716 21.1716C57.1337 19.6095 59.6663 19.6095 61.2284 21.1716L85.2284 45.1716C85.9786 45.9217 86.4 46.9391 86.4 48C86.4 49.0609 85.9786 50.0783 85.2284 50.8284L61.2284 74.8284C59.6663 76.3905 57.1337 76.3905 55.5716 74.8284C54.0095 73.2663 54.0095 70.7337 55.5716 69.1716L72.7431 52L13.5996 52C11.3905 52 9.59961 50.2091 9.59961 48C9.59961 45.7909 11.3905 44 13.5996 44L72.7431 44L55.5716 26.8284C54.0095 25.2663 54.0095 22.7337 55.5716 21.1716Z" fill="white"/>
</svg>
